<?xml version="1.0" standalone="no"?>
<!DOCTYPE svg PUBLIC "-//W3C//DTD SVG 20010904//EN"
 "http://www.w3.org/TR/2001/REC-SVG-20010904/DTD/svg10.dtd">
<svg version="1.0" xmlns="http://www.w3.org/2000/svg"
 width="1075.000000pt" height="629.000000pt" viewBox="0 0 1075.000000 629.000000"
 preserveAspectRatio="xMidYMid meet">

<g transform="translate(0.000000,629.000000) scale(0.100000,-0.100000)"
fill="#000000" stroke="none">
<path d="M5848 5933 l-357 -357 -39 22 c-46 26 -82 28 -120 8 -15 -8 -215
-203 -444 -433 -352 -353 -418 -423 -423 -453 -7 -37 6 -84 30 -110 13 -14 0
-30 -105 -135 l-119 -119 -42 23 c-31 18 -51 22 -82 18 -37 -5 -58 -23 -236
-200 l-196 -195 -135 -5 c-137 -6 -199 -18 -280 -54 -65 -29 -82 -53 -89 -125
l-6 -61 -110 -43 c-161 -64 -354 -162 -490 -252 -519 -340 -727 -748 -593
-1162 78 -242 276 -464 502 -564 347 -154 801 -126 1591 95 814 228 901 248
1130 256 130 5 172 2 225 -11 92 -24 144 -51 193 -102 43 -45 64 -53 85 -32
25 25 13 56 -39 101 -115 101 -228 131 -459 124 -230 -7 -390 -41 -945 -197
-659 -186 -897 -235 -1191 -247 -488 -19 -814 153 -984 520 -140 302 -73 597
200 881 145 151 302 267 514 380 109 59 308 146 331 146 9 0 15 -10 15 -23 0
-13 5 -28 11 -34 5 -5 9 -32 7 -59 l-3 -49 -156 -85 c-304 -165 -438 -259
-570 -398 -93 -99 -140 -170 -176 -269 -132 -364 98 -659 602 -774 80 -18 131
-22 250 -22 241 -1 455 44 995 208 l285 87 560 0 c308 0 758 -3 1000 -7 493
-8 1200 14 1329 41 89 18 148 53 170 99 10 21 24 35 35 35 16 0 19 12 25 92 3
50 6 383 6 739 l0 648 -37 30 c-48 40 -121 67 -229 86 -150 26 -747 38 -1717
33 l-908 -4 105 104 104 105 27 -22 c20 -15 42 -21 78 -21 l51 0 419 418 c230
229 425 429 433 444 20 38 17 87 -7 127 l-21 34 539 539 538 538 -60 0 -60 0
-510 -510 -510 -510 -117 117 c-65 65 -118 122 -118 128 0 5 172 182 382 392
l383 383 -55 0 -55 0 -357 -357z m-241 -596 c154 -154 203 -208 203 -227 0
-36 -804 -840 -840 -840 -19 0 -73 49 -227 203 -126 125 -203 210 -203 222 0
27 818 845 845 845 12 0 97 -77 222 -203z m-915 -924 l118 -118 -122 -123
-122 -123 -118 118 c-65 65 -118 122 -118 128 0 13 222 235 235 235 6 0 63
-53 127 -117z m-364 -246 l154 -154 -318 -7 c-174 -3 -320 -4 -323 -1 -8 9
303 315 320 315 8 0 83 -69 167 -153z m1189 -484 c17 -25 18 -63 18 -463 0
-404 -1 -438 -18 -464 -14 -20 -25 -26 -45 -24 -50 6 -52 20 -54 479 -1 370 1
429 15 462 20 47 57 51 84 10z m293 -8 c12 -25 15 -99 14 -455 0 -473 -2 -485
-59 -485 -56 0 -57 12 -59 479 -1 379 1 425 16 459 15 33 22 38 45 35 19 -2
32 -12 43 -33z m-1755 -50 c76 -20 123 -50 131 -82 16 -61 -29 -71 -151 -33
-124 38 -239 15 -272 -55 -36 -75 19 -148 137 -181 192 -54 247 -82 286 -149
19 -33 24 -56 24 -111 0 -183 -145 -297 -356 -280 -151 11 -254 68 -254 138 0
63 47 77 106 32 51 -39 100 -53 189 -54 127 0 191 46 189 136 -2 83 -47 120
-207 166 -117 34 -151 50 -190 87 -46 42 -60 78 -59 152 0 80 23 132 82 182
73 63 219 84 345 52z m1179 -6 c53 -41 18 -129 -51 -129 -34 0 -73 42 -73 79
0 34 39 71 75 71 12 0 34 -9 49 -21z m-390 -263 c68 -33 118 -95 142 -173 18
-63 21 -184 4 -239 -54 -181 -309 -274 -464 -169 -20 14 -38 25 -39 25 -2 0 1
-46 6 -102 16 -195 0 -268 -60 -268 -40 0 -61 32 -68 105 -14 126 -11 525 4
590 44 194 137 269 327 262 75 -2 100 -8 148 -31z m383 7 c16 -24 18 -55 18
-304 -1 -244 -3 -279 -18 -303 -22 -33 -61 -35 -82 -2 -12 18 -17 68 -21 232
-6 214 4 363 26 389 20 24 58 18 77 -12z m1923 12 c9 -11 8 -26 -4 -68 -31
-108 -398 -808 -445 -851 -23 -21 -68 -15 -78 10 -9 23 19 103 80 229 l53 110
-77 165 c-96 206 -149 340 -149 374 0 19 6 27 24 32 63 16 76 -2 181 -245 43
-100 81 -183 84 -186 4 -2 56 84 116 192 59 107 119 208 132 224 27 31 63 38
83 14z m-735 -7 c24 -11 29 -22 26 -63 -3 -31 -99 -166 -221 -312 -60 -72
-110 -134 -110 -137 0 -3 70 -6 155 -6 178 0 205 -7 205 -54 0 -62 5 -61 -265
-61 -270 0 -271 0 -259 60 3 17 20 55 36 85 40 71 194 272 252 330 25 24 46
48 46 52 0 4 -62 8 -138 8 -151 0 -182 9 -182 55 0 51 15 55 230 55 130 0 208
-4 225 -12z m-3247 -80 l-3 -81 -98 -58 c-257 -153 -375 -294 -406 -489 -25
-156 45 -292 189 -365 122 -62 324 -94 490 -79 52 5 245 7 429 4 l335 -5 -180
-52 c-573 -168 -845 -188 -1151 -87 -308 102 -472 304 -433 532 37 220 217
421 560 622 150 88 242 137 258 139 10 1 12 -19 10 -81z m5 -185 c3 -5 8 -33
12 -64 l7 -57 -58 -40 c-129 -87 -214 -209 -214 -305 0 -113 70 -174 241 -211
22 -5 27 -13 32 -47 3 -22 13 -49 23 -60 9 -10 15 -21 13 -24 -9 -8 -181 15
-239 31 -173 50 -255 141 -254 279 2 169 113 318 344 459 79 48 86 51 93 39z
m40 -367 c4 -104 1 -151 -9 -188 -14 -45 -17 -48 -42 -42 -209 44 -218 187
-23 340 31 24 59 40 62 36 4 -4 9 -70 12 -146z"/>
<path d="M5306 4771 c-245 -245 -337 -343 -333 -355 4 -9 12 -16 19 -16 20 0
691 676 686 691 -3 8 -11 15 -19 17 -8 1 -167 -150 -353 -337z"/>
<path d="M4605 3257 c-70 -33 -95 -85 -95 -195 1 -140 50 -202 163 -202 74 0
117 18 153 66 27 35 29 43 29 134 0 90 -2 99 -28 133 -16 21 -39 44 -52 53
-34 22 -132 28 -170 11z"/>
<path d="M2195 4986 c-124 -54 -157 -180 -84 -317 77 -144 286 -266 365 -214
30 20 29 41 -7 123 -22 50 -22 57 -12 142 19 145 -10 219 -102 261 -47 22
-117 24 -160 5z m132 -83 c56 -26 68 -68 52 -172 -10 -65 -10 -96 -1 -139 6
-31 10 -57 9 -59 -10 -9 -100 49 -142 92 -111 110 -126 233 -33 278 42 21 71
21 115 0z"/>
<path d="M1742 4522 c-96 -35 -171 -115 -205 -220 -22 -67 -21 -103 5 -176 30
-82 110 -164 191 -194 226 -85 531 -26 694 134 49 48 63 68 63 91 0 44 -26 61
-121 79 -112 21 -160 49 -262 154 -57 58 -105 97 -141 115 -73 36 -154 42
-224 17z m202 -96 c22 -13 79 -63 125 -111 96 -98 162 -137 265 -156 l66 -13
-27 -28 c-36 -38 -169 -103 -253 -125 -88 -22 -247 -22 -322 0 -114 34 -188
121 -188 220 0 75 20 127 66 173 75 76 181 91 268 40z"/>
<path d="M1706 4254 c-9 -24 11 -89 39 -122 33 -39 98 -69 177 -81 69 -11 159
-3 165 15 3 8 -29 13 -104 15 -92 4 -116 8 -157 29 -60 31 -86 64 -93 118 -6
44 -16 54 -27 26z"/>
<path d="M8568 1786 c-19 -24 -24 -37 -16 -42 13 -9 71 52 63 66 -10 16 -19
12 -47 -24z"/>
<path d="M9131 1782 c-19 -37 -19 -52 1 -52 5 0 16 16 25 35 12 26 14 38 6 46
-8 8 -17 1 -32 -29z"/>
<path d="M7686 1744 c-16 -9 -24 -20 -19 -25 12 -12 83 11 83 28 0 17 -28 16
-64 -3z"/>
<path d="M7536 1711 c-43 -9 -46 -31 -4 -31 39 0 63 13 54 29 -4 6 -10 10 -14
10 -4 -1 -20 -4 -36 -8z"/>
<path d="M8438 1703 c-36 -14 -53 -43 -25 -43 21 0 78 40 72 50 -3 6 -7 10 -8
9 -1 0 -19 -7 -39 -16z"/>
<path d="M7340 1681 c-25 -16 1 -30 43 -23 21 4 39 12 40 17 3 13 -64 18 -83
6z"/>
<path d="M9018 1659 c-16 -11 -28 -25 -28 -30 0 -16 26 -10 54 12 48 38 23 55
-26 18z"/>
<path d="M7170 1654 c0 -12 9 -14 42 -12 59 4 63 28 4 28 -35 0 -46 -4 -46
-16z"/>
<path d="M7000 1645 c0 -11 12 -15 45 -15 33 0 45 4 45 15 0 11 -12 15 -45 15
-33 0 -45 -4 -45 -15z"/>
<path d="M5485 1640 c-3 -5 0 -13 8 -16 23 -8 82 0 82 11 0 14 -82 19 -90 5z"/>
<path d="M5655 1640 c-10 -16 12 -30 47 -30 25 0 46 15 35 26 -12 12 -75 15
-82 4z"/>
<path d="M6678 1643 c-20 -5 -23 -18 -7 -28 18 -11 79 5 79 20 0 15 -33 18
-72 8z"/>
<path d="M6830 1635 c0 -11 12 -15 45 -15 33 0 45 4 45 15 0 11 -12 15 -45 15
-33 0 -45 -4 -45 -15z"/>
<path d="M8268 1638 c-29 -10 -35 -22 -18 -33 12 -8 80 21 80 34 0 13 -26 13
-62 -1z"/>
<path d="M5822 1628 c3 -7 23 -14 46 -16 33 -2 42 0 42 12 0 12 -11 16 -46 16
-32 0 -44 -4 -42 -12z"/>
<path d="M5990 1625 c0 -11 12 -15 45 -15 33 0 45 4 45 15 0 11 -12 15 -45 15
-33 0 -45 -4 -45 -15z"/>
<path d="M6160 1625 c0 -11 12 -15 45 -15 33 0 45 4 45 15 0 11 -12 15 -45 15
-33 0 -45 -4 -45 -15z"/>
<path d="M6330 1624 c0 -12 9 -14 42 -12 59 4 63 28 4 28 -35 0 -46 -4 -46
-16z"/>
<path d="M6495 1630 c-3 -5 0 -13 8 -16 23 -8 82 0 82 11 0 14 -82 19 -90 5z"/>
<path d="M8118 1597 c-22 -5 -38 -15 -38 -23 0 -12 8 -13 38 -8 43 7 61 20 47
32 -6 5 -27 5 -47 -1z"/>
<path d="M8878 1579 c-39 -20 -50 -39 -23 -39 22 0 75 28 75 40 0 18 -16 18
-52 -1z"/>
<path d="M7946 1561 c-36 -8 -47 -31 -14 -31 39 0 68 12 68 26 0 15 -7 15 -54
5z"/>
<path d="M7773 1533 c-25 -5 -32 -33 -9 -33 36 0 76 14 76 26 0 14 -21 16 -67
7z"/>
<path d="M8723 1517 c-41 -16 -50 -25 -29 -33 22 -8 76 15 76 32 0 16 -4 16
-47 1z"/>
<path d="M7621 1511 c-51 -9 -52 -31 -2 -31 39 0 62 15 45 29 -5 4 -24 5 -43
2z"/>
<path d="M4727 1494 c-14 -14 6 -24 49 -24 32 0 44 4 42 13 -5 13 -79 22 -91
11z"/>
<path d="M7451 1491 c-51 -9 -52 -31 -2 -31 39 0 62 15 45 29 -5 4 -24 5 -43
2z"/>
<path d="M4895 1480 c-10 -17 13 -30 53 -30 22 0 32 5 32 15 0 9 -9 15 -24 15
-13 0 -31 3 -39 6 -8 3 -18 0 -22 -6z"/>
<path d="M7263 1473 c-7 -2 -13 -12 -13 -20 0 -12 7 -14 37 -8 46 8 55 13 48
26 -6 9 -51 11 -72 2z"/>
<path d="M5060 1456 c0 -12 11 -16 46 -16 59 0 55 24 -4 28 -33 2 -42 0 -42
-12z"/>
<path d="M7118 1462 c-25 -2 -38 -8 -38 -18 0 -17 75 -20 86 -3 10 17 -8 24
-48 21z"/>
<path d="M8543 1460 c-28 -11 -30 -30 -4 -30 29 0 71 18 71 30 0 12 -37 12
-67 0z"/>
<path d="M5230 1446 c0 -12 11 -16 46 -16 59 0 55 24 -4 28 -33 2 -42 0 -42
-12z"/>
<path d="M5400 1436 c0 -12 11 -16 46 -16 59 0 55 24 -4 28 -33 2 -42 0 -42
-12z"/>
<path d="M6762 1443 c-26 -5 -25 -26 2 -31 29 -6 66 7 66 23 0 15 -20 17 -68
8z"/>
<path d="M6910 1434 c0 -12 9 -14 42 -12 59 4 63 28 4 28 -35 0 -46 -4 -46
-16z"/>
<path d="M5562 1428 c5 -15 87 -18 91 -3 1 6 -20 11 -47 13 -36 2 -47 0 -44
-10z"/>
<path d="M5737 1433 c-16 -16 -4 -23 38 -23 33 0 45 4 45 15 0 11 -11 15 -38
15 -21 0 -42 -3 -45 -7z"/>
<path d="M6415 1430 c-10 -17 5 -30 33 -30 34 0 57 14 48 29 -9 14 -73 15 -81
1z"/>
<path d="M6577 1434 c-17 -18 -4 -25 41 -22 26 2 47 8 47 13 0 12 -77 19 -88
9z"/>
<path d="M5903 1418 c2 -8 20 -13 42 -13 22 0 40 5 43 13 2 8 -10 12 -43 12
-33 0 -45 -4 -42 -12z"/>
<path d="M6073 1418 c2 -8 20 -13 42 -13 22 0 40 5 43 13 2 8 -10 12 -43 12
-33 0 -45 -4 -42 -12z"/>
<path d="M6240 1414 c0 -12 9 -14 42 -12 59 4 63 28 4 28 -35 0 -46 -4 -46
-16z"/>
<path d="M8391 1421 c-27 -7 -41 -31 -18 -31 37 0 77 14 77 26 0 15 -19 16
-59 5z"/>
<path d="M8213 1383 c-7 -2 -13 -11 -13 -19 0 -12 8 -13 38 -8 43 8 52 12 52
25 0 9 -55 11 -77 2z"/>
<path d="M4175 1351 c-8 -14 28 -31 64 -31 29 0 41 13 24 23 -20 11 -82 17
-88 8z"/>
<path d="M8040 1350 c-24 -15 1 -29 39 -22 47 10 53 32 9 32 -18 0 -40 -5 -48
-10z"/>
<path d="M7905 1333 c-38 -6 -54 -20 -32 -29 24 -9 89 5 85 18 -5 14 -14 16
-53 11z"/>
<path d="M4342 1318 c6 -16 70 -29 83 -17 14 14 -13 29 -53 29 -22 0 -32 -4
-30 -12z"/>
<path d="M4510 1298 c0 -18 69 -33 84 -18 14 14 3 21 -43 27 -32 4 -41 2 -41
-9z"/>
<path d="M7707 1303 c-17 -16 -4 -24 35 -21 55 4 64 28 11 28 -22 0 -43 -3
-46 -7z"/>
<path d="M4675 1281 c-8 -13 4 -19 47 -22 41 -4 60 7 38 21 -19 12 -77 13 -85
1z"/>
<path d="M7537 1283 c-17 -16 -4 -24 35 -21 55 4 64 28 11 28 -22 0 -43 -3
-46 -7z"/>
<path d="M7387 1273 c-35 -5 -30 -27 6 -31 30 -4 70 15 62 29 -6 9 -17 9 -68
2z"/>
<path d="M4842 1258 c3 -7 23 -14 46 -16 33 -2 42 0 42 12 0 12 -11 16 -46 16
-32 0 -44 -4 -42 -12z"/>
<path d="M5010 1246 c0 -12 11 -16 46 -16 59 0 55 24 -4 28 -33 2 -42 0 -42
-12z"/>
<path d="M7195 1250 c-3 -6 0 -13 8 -16 24 -9 80 0 85 14 5 15 -84 17 -93 2z"/>
<path d="M5180 1236 c0 -12 11 -16 46 -16 59 0 55 24 -4 28 -33 2 -42 0 -42
-12z"/>
<path d="M7030 1235 c0 -11 12 -15 45 -15 33 0 45 4 45 15 0 11 -12 15 -45 15
-33 0 -45 -4 -45 -15z"/>
<path d="M5350 1226 c0 -12 11 -16 46 -16 59 0 55 24 -4 28 -33 2 -42 0 -42
-12z"/>
<path d="M6860 1225 c0 -11 12 -15 45 -15 33 0 45 4 45 15 0 11 -12 15 -45 15
-33 0 -45 -4 -45 -15z"/>
<path d="M5512 1218 c5 -15 87 -18 91 -3 1 6 -20 11 -47 13 -36 2 -47 0 -44
-10z"/>
<path d="M5685 1220 c-10 -16 -5 -18 40 -22 30 -2 40 1 40 12 0 18 -70 27 -80
10z"/>
<path d="M6527 1224 c-17 -18 -4 -25 41 -22 26 2 47 8 47 13 0 12 -77 19 -88
9z"/>
<path d="M6690 1215 c0 -11 12 -15 45 -15 33 0 45 4 45 15 0 11 -12 15 -45 15
-33 0 -45 -4 -45 -15z"/>
<path d="M5852 1208 c3 -7 23 -14 46 -16 33 -2 42 0 42 12 0 12 -11 16 -46 16
-32 0 -44 -4 -42 -12z"/>
<path d="M6020 1205 c0 -11 12 -15 45 -15 33 0 45 4 45 15 0 11 -12 15 -45 15
-33 0 -45 -4 -45 -15z"/>
<path d="M6190 1204 c0 -12 9 -14 42 -12 59 4 63 28 4 28 -35 0 -46 -4 -46
-16z"/>
<path d="M6355 1210 c-3 -6 0 -13 8 -16 24 -9 80 0 85 14 5 15 -84 17 -93 2z"/>
</g>
</svg>
